# xmcd
#
# Track frame offsets:
#	150
#	12722
#	28591
#	44942
#	65512
#	73370
#	88431
#	103754
#	127440
#	138886
#	151357
#	171560
#	190533
#	202773
#	242381
#
# Disc length: 4127 seconds
#
# Revision: 1
# Processed by: cddbd v1.5.2PL0 Copyright (c) Steve Scherf et al.
# Submitted via: audiograbber 1.83.01
#
DISCID=e6101d0f
DTITLE=MOK - Das Beste
DYEAR=1900
DGENRE=
TTITLE0=MOK feat. G-Hot - Dad Beste
TTITLE1=MOK feat. Godsilla and Sera Finale - Lauf
TTITLE2=MOK feat. Taichi - Zwei Welten
TTITLE3=Bahar feat. MOK - Die Wahrheit tut weh
TTITLE4=MOK - Maxim
TTITLE5=Robird Styles feat. S.A.S. Diplomats - Eurobird
TTITLE6=Alpa Gun - Mein Befehl
TTITLE7=Joe Rilla - Dein letzter Cent
TTITLE8=Greckoe - Schicksal
TTITLE9=MOK and Alpa Gun - Clik Bang
TTITLE10=Die Sekte - Das ist Krieg
TTITLE11=Six Eastwood - E.A.S.T.W.O.O.D. Pt. II
TTITLE12=Mach One - Kopf hoch
TTITLE13=MOK feat. Grüne Medizin, Greckoe and B-Tight - Boys im Club
TTITLE14=Gangsta Video - Daten-CD
EXTD=
EXTT0=
EXTT1=
EXTT2=
EXTT3=
EXTT4=
EXTT5=
EXTT6=
EXTT7=
EXTT8=
EXTT9=
EXTT10=
EXTT11=
EXTT12=
EXTT13=
EXTT14=
PLAYORDER=
